<svg aria-hidden="true" style="position:absolute;width:0;height:0;overflow:hidden" xmlns="http://www.w3.org/2000/svg">
    <defs>
        <symbol id="envelope" viewBox="0 0 43 32">
            <path
                d="M38.667 0H4C1.794 0 0 1.794 0 4v24c0 2.206 1.794 4 4 4h34.667c2.206 0 4-1.794 4-4V4c0-2.206-1.794-4-4-4zm0 2.667c.181 0 .353.038.511.103L21.334 18.236 3.49 2.77a1.32 1.32 0 0 1 .511-.103h34.667zm0 26.666H4A1.334 1.334 0 0 1 2.667 28V5.587L20.46 21.008a1.335 1.335 0 0 0 1.748 0L40.001 5.587V28c0 .736-.598 1.333-1.333 1.333z" />
        </symbol>
        <symbol id="facebook" viewBox="0 0 32 32">
            <path
                d="M21.329 5.313h2.921V.225C23.746.156 22.013 0 19.994 0c-4.212 0-7.097 2.649-7.097 7.519V12H8.249v5.688h4.648V32h5.699V17.689h4.46l.708-5.688h-5.169V8.082c.001-1.644.444-2.769 2.735-2.769z" />
        </symbol>
        <symbol id="instagram" viewBox="0 0 32 32">
            <path
                d="M31.969 9.408c-.075-1.7-.35-2.869-.744-3.882a7.806 7.806 0 0 0-1.851-2.838A7.867 7.867 0 0 0 26.542.844C25.523.45 24.36.175 22.66.1 20.947.019 20.403 0 16.059 0s-4.888.019-6.595.094c-1.7.075-2.869.35-3.882.744a7.803 7.803 0 0 0-2.838 1.85A7.867 7.867 0 0 0 .9 5.52C.506 6.539.231 7.702.156 9.402c-.081 1.713-.1 2.257-.1 6.601s.019 4.888.094 6.595c.075 1.7.35 2.869.744 3.882a7.895 7.895 0 0 0 1.85 2.838 7.867 7.867 0 0 0 2.832 1.844c1.019.394 2.182.669 3.882.744 1.706.075 2.25.094 6.595.094s4.888-.019 6.595-.094c1.7-.075 2.869-.35 3.882-.744a8.184 8.184 0 0 0 4.682-4.682c.394-1.019.669-2.182.744-3.882.075-1.707.094-2.251.094-6.595s-.006-4.888-.081-6.595zm-2.882 13.065c-.069 1.563-.331 2.407-.55 2.969a5.31 5.31 0 0 1-3.038 3.038c-.563.219-1.413.481-2.969.55-1.688.075-2.194.094-6.464.094s-4.782-.019-6.464-.094c-1.563-.069-2.407-.331-2.969-.55a4.926 4.926 0 0 1-1.838-1.194 4.974 4.974 0 0 1-1.194-1.838c-.219-.563-.481-1.413-.55-2.969-.075-1.688-.094-2.194-.094-6.464s.019-4.782.094-6.464c.069-1.563.331-2.407.55-2.969a4.868 4.868 0 0 1 1.2-1.838A4.974 4.974 0 0 1 6.639 3.55c.563-.219 1.413-.481 2.969-.55 1.688-.075 2.194-.094 6.464-.094 4.276 0 4.782.019 6.464.094 1.563.069 2.407.331 2.969.55a4.914 4.914 0 0 1 1.838 1.194 4.974 4.974 0 0 1 1.194 1.838c.219.563.481 1.413.55 2.969.075 1.688.094 2.194.094 6.464s-.019 4.77-.094 6.458z" />
            <path
                d="M16.059 7.783c-4.538 0-8.22 3.682-8.22 8.22s3.682 8.22 8.22 8.22c4.539 0 8.22-3.682 8.22-8.22s-3.682-8.22-8.22-8.22zm0 13.552a5.333 5.333 0 0 1 0-10.664 5.333 5.333 0 0 1 0 10.664zM26.524 7.458a1.919 1.919 0 1 1-3.838 0 1.919 1.919 0 0 1 3.838 0z" />
        </symbol>
        <symbol id="linkedin" viewBox="0 0 32 32">
            <path
                d="M31.992 32v-.001H32V20.263c0-5.741-1.236-10.164-7.948-10.164-3.227 0-5.392 1.771-6.276 3.449h-.093v-2.913h-6.364v21.364h6.627V21.42c0-2.785.528-5.479 3.977-5.479 3.399 0 3.449 3.179 3.449 5.657v10.401h6.62zM.528 10.636h6.635V32H.528V10.636zM3.843 0C1.722 0 0 1.721 0 3.843s1.721 3.879 3.843 3.879c2.121 0 3.843-1.757 3.843-3.879A3.846 3.846 0 0 0 3.843 0z" />
        </symbol>
        <symbol id="smartphone" viewBox="0 0 20 32">
            <path
                d="M17 0H3C1.346 0 0 1.346 0 3v26c0 1.654 1.346 3 3 3h14c1.654 0 3-1.346 3-3V3c0-1.654-1.346-3-3-3zM3 2h14a1 1 0 0 1 1 1v21H2V3a1 1 0 0 1 1-1zm14 28H3a1 1 0 0 1-1-1v-3h16v3a1 1 0 0 1-1 1z" />
            <path
                d="M4.707 27.478c.391.365.391.956 0 1.321s-1.024.365-1.414 0c-.391-.365-.391-.956 0-1.321s1.024-.365 1.414 0z" />
        </symbol>
        <symbol id="twitter" viewBox="0 0 32 32">
            <path
                d="M32 6.078c-1.19.522-2.458.868-3.78 1.036a6.523 6.523 0 0 0 2.886-3.626 13.11 13.11 0 0 1-4.16 1.588A6.574 6.574 0 0 0 22.154 3c-3.632 0-6.556 2.948-6.556 6.562 0 .52.044 1.02.152 1.496-5.454-.266-10.28-2.88-13.522-6.862a6.605 6.605 0 0 0-.898 3.316 6.57 6.57 0 0 0 2.914 5.452 6.479 6.479 0 0 1-2.964-.808v.072c0 3.188 2.274 5.836 5.256 6.446a6.548 6.548 0 0 1-1.72.216 5.8 5.8 0 0 1-1.242-.112c.85 2.598 3.262 4.508 6.13 4.57a13.182 13.182 0 0 1-8.134 2.798c-.538 0-1.054-.024-1.57-.09A18.469 18.469 0 0 0 10.064 29c12.072 0 18.672-10 18.672-18.668 0-.29-.01-.57-.024-.848A13.087 13.087 0 0 0 32 6.078z" />
        </symbol>
        <symbol id="close-black" viewBox="0 0 32 32">
            <path
                d="M26.667 7.303l-1.97-1.97-7.808 7.808-7.808-7.808-1.97 1.97 7.808 7.808-7.808 7.808 1.97 1.97 7.808-7.808 7.808 7.808 1.97-1.97-7.808-7.808 7.808-7.808z">
            </path>
        </symbol>
        <symbol id="email-form" viewBox="0 0 32 32">
            <path
                d="M26.667 5.333h-21.333c-1.467 0-2.653 1.2-2.653 2.667l-0.013 16c0 1.467 1.2 2.667 2.667 2.667h21.333c1.467 0 2.667-1.2 2.667-2.667v-16c0-1.467-1.2-2.667-2.667-2.667zM26.133 11l-9.427 5.893c-0.427 0.267-0.987 0.267-1.413 0l-9.427-5.893c-0.333-0.213-0.533-0.573-0.533-0.96 0-0.893 0.973-1.427 1.733-0.96l8.933 5.587 8.933-5.587c0.76-0.467 1.733 0.067 1.733 0.96 0 0.387-0.2 0.747-0.533 0.96z">
            </path>
        </symbol>
        <symbol id="person" viewBox="0 0 32 32">
            <path
                d="M16 16c2.947 0 5.333-2.387 5.333-5.333s-2.387-5.333-5.333-5.333c-2.947 0-5.333 2.387-5.333 5.333s2.387 5.333 5.333 5.333zM16 18.667c-3.56 0-10.667 1.787-10.667 5.333v1.333c0 0.733 0.6 1.333 1.333 1.333h18.667c0.733 0 1.333-0.6 1.333-1.333v-1.333c0-3.547-7.107-5.333-10.667-5.333z">
            </path>
        </symbol>
        <symbol id="phone-form" viewBox="0 0 32 32">
            <path
                d="M24.882 19.773l-3.268-0.373c-0.785-0.090-1.557 0.18-2.11 0.733l-2.367 2.367c-3.641-1.853-6.626-4.825-8.478-8.478l2.38-2.38c0.553-0.553 0.823-1.325 0.733-2.11l-0.373-3.242c-0.154-1.299-1.248-2.277-2.56-2.277h-2.226c-1.454 0-2.663 1.209-2.573 2.663 0.682 10.987 9.469 19.761 20.443 20.443 1.454 0.090 2.663-1.119 2.663-2.573v-2.226c0.013-1.3-0.965-2.393-2.264-2.547z">
            </path>
        </symbol>
        <symbol id="subscribe" viewBox="0 0 32 32">
            <path
                d="M32 0l-32 18 10.227 3.788 15.773-14.788-11.998 16.186 0.010 0.004-0.012-0.004v8.814l5.735-6.691 7.265 2.691 5-28z">
            </path>
        </symbol>
        <symbol id="close_40px" viewBox="0 0 32 32">
            <path
                d="M23.733 10.304l-1.504-1.504-5.963 5.963-5.963-5.963-1.504 1.504 5.963 5.963-5.963 5.963 1.504 1.504 5.963-5.963 5.963 5.963 1.504-1.504-5.963-5.963 5.963-5.963z">
            </path>
        </symbol>
        <symbol id="menu_40px" viewBox="0 0 32 32">
            <path
                d="M6.4 11.733v-2.133h19.2v2.133h-19.2zM6.4 17.067h19.2v-2.133h-19.2v2.133zM6.4 22.4h19.2v-2.133h-19.2v2.133z">
            </path>
        </symbol>

        <symbol id="viber" viewBox="0 0 50 50">
            <path
                d="M44.78,13.155c-0.78-2.786-2.325-4.99-4.591-6.55c-2.86-1.971-6.149-2.669-8.989-3.093 c-3.931-0.586-7.491-0.669-10.882-0.254c-3.181,0.39-5.574,1.011-7.76,2.016c-4.281,1.967-6.851,5.15-7.637,9.461 c-0.381,2.092-0.638,3.985-0.787,5.788c-0.343,4.172-0.032,7.863,0.952,11.285c0.959,3.336,2.635,5.719,5.123,7.284 c0.635,0.399,1.446,0.688,2.231,0.966c0.446,0.158,0.879,0.311,1.235,0.476c0.328,0.152,0.328,0.181,0.325,0.455 c-0.028,2.372,0,7.019,0,7.019L14.006,49h1.783l0.291-0.28c0.188-0.181,4.605-4.447,6.177-6.164l0.214-0.241 c0.271-0.31,0.271-0.31,0.55-0.315c2.124-0.042,4.295-0.124,6.452-0.241c2.614-0.143,5.642-0.395,8.493-1.585 c2.61-1.09,4.514-2.819,5.659-5.14c1.194-2.421,1.903-5.043,2.169-8.016C46.26,21.793,45.929,17.258,44.78,13.155z M35.382,33.479 c-0.654,1.069-1.633,1.809-2.786,2.291c-0.842,0.352-1.702,0.278-2.532-0.074c-6.968-2.948-12.43-7.595-16.042-14.274 c-0.744-1.375-1.262-2.874-1.855-4.328c-0.122-0.299-0.114-0.65-0.167-0.976c0.051-2.35,1.853-3.671,3.673-4.072 c0.696-0.154,1.311,0.092,1.828,0.585c1.428,1.363,2.557,2.943,3.408,4.716c0.373,0.777,0.205,1.466-0.43,2.044 c-0.131,0.12-0.269,0.232-0.411,0.339c-1.446,1.088-1.659,1.91-0.888,3.547c1.313,2.786,3.49,4.656,6.308,5.816 c0.743,0.306,1.442,0.155,2.009-0.447c0.076-0.081,0.162-0.158,0.218-0.251c1.111-1.853,2.722-1.669,4.209-0.612 c0.977,0.695,1.927,1.426,2.893,2.135C36.29,30.999,36.277,32.015,35.382,33.479z M26.143,15c-0.327,0-0.656,0.027-0.979,0.081 c-0.546,0.092-1.06-0.277-1.151-0.822c-0.091-0.545,0.277-1.06,0.822-1.151C25.266,13.037,25.706,13,26.143,13 C30.476,13,34,16.525,34,20.857c0,0.44-0.037,0.88-0.108,1.309C33.809,22.654,33.386,23,32.906,23c-0.055,0-0.111-0.004-0.167-0.014 c-0.544-0.092-0.912-0.607-0.82-1.152C31.973,21.515,32,21.187,32,20.857C32,17.627,29.373,15,26.143,15z M31,21 c0,0.552-0.448,1-1,1s-1-0.448-1-1c0-1.654-1.346-3-3-3c-0.552,0-1-0.448-1-1s0.448-1,1-1C28.757,16,31,18.243,31,21z M36.709,23.221C36.604,23.686,36.192,24,35.735,24c-0.073,0-0.148-0.008-0.222-0.025c-0.539-0.122-0.876-0.658-0.754-1.196 c0.145-0.639,0.218-1.298,0.218-1.961c0-4.862-3.956-8.818-8.818-8.818c-0.663,0-1.322,0.073-1.961,0.218 c-0.536,0.124-1.074-0.215-1.196-0.754s0.215-1.074,0.754-1.196C24.54,10.09,25.349,10,26.16,10c5.965,0,10.818,4.853,10.818,10.818 C36.978,21.629,36.887,22.438,36.709,23.221z" />
        </symbol>
        <symbol id="whatsapp" viewBox="0 0 32 32">
            <path
                d="M24.503,7.503C22.247,5.245,19.247,4.001,16.05,4 C9.464,4,4.103,9.359,4.1,15.945c-0.001,2.105,0.549,4.161,1.595,5.972L4,28.108l6.335-1.661c1.745,0.952,3.711,1.453,5.711,1.454 h0.005c0,0,0,0,0,0c6.586,0,11.947-5.359,11.95-11.946C28.001,12.763,26.759,9.761,24.503,7.503z M16.05,25.883h-0.004 c-1.782-0.001-3.53-0.479-5.055-1.384l-0.363-0.215L6.869,25.27l1.003-3.664L7.636,21.23c-0.994-1.581-1.519-3.408-1.519-5.284 c0.002-5.475,4.458-9.928,9.936-9.928c2.653,0.001,5.147,1.035,7.022,2.912s2.907,4.371,2.906,7.024 C25.98,21.429,21.525,25.883,16.05,25.883z M21.498,18.447c-0.299-0.149-1.767-0.872-2.04-0.971 c-0.274-0.1-0.473-0.149-0.672,0.149c-0.199,0.299-0.771,0.971-0.945,1.17c-0.174,0.199-0.348,0.224-0.647,0.075 c-0.299-0.149-1.261-0.465-2.401-1.482c-0.888-0.791-1.487-1.769-1.661-2.068c-0.174-0.299-0.019-0.46,0.131-0.609 c0.134-0.134,0.299-0.349,0.448-0.523s0.199-0.299,0.299-0.498s0.05-0.374-0.025-0.523s-0.672-1.619-0.921-2.216 c-0.242-0.582-0.489-0.503-0.672-0.512c-0.174-0.009-0.373-0.01-0.572-0.01c-0.199,0-0.523,0.075-0.796,0.374 s-1.045,1.021-1.045,2.49s1.07,2.889,1.219,3.088s2.105,3.214,5.101,4.507c0.712,0.307,1.269,0.491,1.702,0.629 c0.715,0.227,1.366,0.195,1.881,0.118c0.574-0.086,1.767-0.722,2.015-1.419c0.249-0.697,0.249-1.295,0.174-1.419 C21.996,18.671,21.797,18.596,21.498,18.447z"
                fill-rule="evenodd" clip-rule="evenodd" />

        </symbol>
        <symbol id="telegram" viewBox="0 0 32 32">
            <path
                style="line-height:normal;text-indent:0;text-align:start;text-decoration-line:none;text-decoration-style:solid;text-decoration-color:#000;text-transform:none;block-progression:tb;isolation:auto;mix-blend-mode:normal"
                d="M 26.070312 3.9960938 C 25.732466 4.0107344 25.416138 4.1080163 25.134766 4.21875 L 25.132812 4.21875 C 24.84842 4.3311303 23.49044 4.9031118 21.433594 5.7675781 C 19.376747 6.6320444 16.702977 7.7568723 14.052734 8.8730469 C 8.7522493 11.105396 3.5449219 13.300781 3.5449219 13.300781 L 3.609375 13.277344 C 3.609375 13.277344 3.2489735 13.392984 2.8730469 13.650391 C 2.6850836 13.779094 2.4740306 13.948164 2.2890625 14.21875 C 2.1040944 14.489336 1.957942 14.901882 2.0117188 15.330078 C 2.1021968 16.050506 2.5704774 16.485697 2.9082031 16.724609 C 3.2459289 16.963522 3.5722656 17.076172 3.5722656 17.076172 L 3.5800781 17.080078 L 8.4628906 18.722656 C 8.677807 19.427337 9.9494832 23.596654 10.253906 24.558594 C 10.435545 25.132614 10.608999 25.490676 10.826172 25.767578 C 10.934902 25.906212 11.059175 26.024986 11.207031 26.117188 C 11.264451 26.152987 11.327916 26.179618 11.390625 26.205078 C 11.411385 26.213938 11.43059 26.216824 11.451172 26.224609 L 11.402344 26.210938 C 11.416394 26.216438 11.429169 26.225559 11.443359 26.230469 C 11.481362 26.243614 11.508277 26.245999 11.556641 26.255859 C 12.333094 26.487217 12.953125 26.007812 12.953125 26.007812 L 12.988281 25.980469 L 15.869141 23.355469 L 20.703125 27.0625 L 20.814453 27.111328 C 21.818462 27.549379 22.838391 27.302986 23.380859 26.869141 C 23.923326 26.435299 24.132813 25.875 24.132812 25.875 L 24.167969 25.787109 L 27.902344 6.6582031 C 28.008466 6.1835344 28.033707 5.7427558 27.917969 5.3125 C 27.802231 4.8822442 27.501123 4.4786116 27.134766 4.2636719 C 26.768408 4.0487322 26.40816 3.9814529 26.070312 3.9960938 z M 25.966797 6.0449219 C 25.964097 6.1092329 25.975999 6.102796 25.949219 6.2226562 L 25.947266 6.234375 L 22.251953 25.164062 C 22.236153 25.190932 22.205164 25.248772 22.132812 25.306641 C 22.053722 25.369891 21.993292 25.408607 21.666016 25.28125 L 15.757812 20.75 L 12.185547 24.005859 L 12.939453 19.214844 C 12.939453 19.214844 22.19575 10.586844 22.59375 10.214844 C 22.99175 9.8438437 22.859375 9.7636719 22.859375 9.7636719 C 22.886375 9.3126719 22.257812 9.6347656 22.257812 9.6347656 L 10.082031 17.175781 L 10.076172 17.15625 L 4.2421875 15.191406 L 4.2402344 15.189453 C 4.2400959 15.189398 4.2293136 15.183994 4.2285156 15.183594 C 4.2316356 15.182294 4.2558594 15.169922 4.2558594 15.169922 L 4.2890625 15.158203 L 4.3222656 15.144531 C 4.3222656 15.144531 9.5300637 12.948948 14.830078 10.716797 C 17.480085 9.6007214 20.153018 8.4754243 22.208984 7.6113281 C 24.263626 6.7477885 25.782827 6.1134525 25.867188 6.0800781 C 25.950228 6.0473981 25.911497 6.0485569 25.966797 6.0449219 z"
                font-weight="400" font-family="sans-serif" white-space="normal" overflow="visible" />

        </symbol>

        <symbol id="map" viewBox="0 0 512 512">
            <path d="M208.938,331.094l11.875,29.688c-11.5,4.594-22.969,8.094-34.156,10.438l-6.531-31.313
	C189.5,337.938,199.188,334.969,208.938,331.094z M113.719,369.438c11.719,3.375,24.063,5.188,36.688,5.375l0.5-32
	c-9.813-0.156-19.344-1.531-28.344-4.125L113.719,369.438z M365.688,313.594c9.219,1.813,18.219,4.969,26.75,9.375l14.688-28.438
	c-11.25-5.781-23.094-9.938-35.25-12.313L365.688,313.594z M298.938,287.344l9.563,30.5c9.781-3.063,19.438-5,28.75-5.75
	l-2.563-31.875C323,281.156,310.969,283.563,298.938,287.344z M247.563,311.406c-3.594,2.25-7.125,4.313-10.594,6.25l15.563,27.938
	c3.906-2.188,7.906-4.5,11.906-7c5.5-3.406,10.875-6.438,16.156-9.125l-14.531-28.5C260.063,304.031,253.875,307.5,247.563,311.406z
	 M336,112c0,13.063-3.125,25.438-8.688,36.313L256,288c0,0-71.875-140.844-72.156-141.438C178.813,136.125,176,124.375,176,112
	c0-44.188,35.813-80,80-80S336,67.813,336,112z M304,112c0-26.5-21.5-48-48-48s-48,21.5-48,48s21.5,48,48,48S304,138.5,304,112z
	 M416,192h-75.063l-16.344,32h68.344l34.531,103.625l-11.031,12.188c11.75,10.625,17.844,20.406,17.875,20.438l3.375-2.031
	L467.594,448H44.375l32.063-96.094c1.125,0.781,2,1.531,3.25,2.313l17-27.063c-3.813-2.406-6.938-4.781-9.688-7L119.063,224h68.375
	c-6.781-13.25-12.125-23.719-16.344-32H96L0,480h512L416,192z" />
        </symbol>

        <symbol id="clock" viewBox="0 0 42 42">
            <path
                d="M21,0A21,21,0,1,0,42,21,21,21,0,0,0,21,0Zm0,38.07A17.07,17.07,0,1,1,38.07,21,17.09,17.09,0,0,1,21,38.07Z" />
            <path
                d="M26.49,23.8L22,20.68V12.48a2,2,0,0,0-4,0v9.24a2,2,0,0,0,.86,1.64l5.35,3.72A2,2,0,1,0,26.49,23.8Z" />
        </symbol>
        <symbol id="wifi" viewBox="0 0 40 32">
            <path
                d="M20 18c3.308 0 6.308 1.346 8.481 3.519l-2.827 2.827c-1.449-1.449-3.449-2.346-5.654-2.346s-4.206 0.897-5.654 2.346l-2.827-2.827c2.173-2.173 5.173-3.519 8.481-3.519zM5.858 15.858c3.777-3.777 8.8-5.858 14.142-5.858s10.365 2.080 14.142 5.858l-2.828 2.828c-3.022-3.022-7.040-4.686-11.314-4.686s-8.292 1.664-11.314 4.686l-2.828-2.828zM30.899 4.201c3.334 1.41 6.329 3.429 8.899 6v0l-2.828 2.828c-4.533-4.533-10.56-7.029-16.971-7.029s-12.438 2.496-16.971 7.029l-2.828-2.828c2.571-2.571 5.565-4.589 8.899-6 3.453-1.461 7.12-2.201 10.899-2.201s7.446 0.741 10.899 2.201zM18 28c0-1.105 0.895-2 2-2s2 0.895 2 2c0 1.105-0.895 2-2 2s-2-0.895-2-2z">
            </path>
        </symbol>
        <symbol id="bed" viewBox="0 0 24 24">
            <path
                d="M18 9.984v-3h-5.016v3h5.016zM11.016 9.984v-3h-5.016v3h5.016zM20.016 9.984q0.797 0 1.383 0.609t0.586 1.406v5.016h-1.313l-0.656 1.969h-1.031l-0.656-1.969h-12.656l-0.656 1.969h-1.031l-0.656-1.969h-1.313v-5.016q0-0.797 0.586-1.406t1.383-0.609v-3q0-0.797 0.609-1.383t1.406-0.586h12q0.797 0 1.406 0.586t0.609 1.383v3z">
            </path>
        </symbol>
        <symbol id="bed2" viewBox="0 -11.47 122.88 122.88">
            <path
                d="M4.22,67.36h114.31v-4.67c0-1.13-0.22-2.18-0.61-3.12c-0.42-1-1.04-1.89-1.81-2.66c-0.47-0.47-1-0.9-1.57-1.28 c-0.58-0.39-1.2-0.73-1.85-1.02c-1.75-0.38-3.49-0.74-5.22-1.08c-1.74-0.34-3.49-0.66-5.25-0.96c-0.08-0.01-0.14-0.02-0.22-0.04 c-0.89-0.15-1.74-0.29-2.55-0.42c-0.81-0.13-1.67-0.26-2.57-0.4l-0.02,0c-6.12-0.78-12.22-1.38-18.31-1.78 c-6.1-0.4-12.17-0.6-18.2-0.61c-3.58,0-7.15,0.06-10.72,0.2c-3.55,0.14-7.12,0.34-10.69,0.62l-0.02,0 c-3.34,0.31-6.67,0.7-10.01,1.15c-3.33,0.45-6.67,0.98-10.03,1.57l-0.37,0.09c-0.07,0.02-0.14,0.03-0.2,0.03 c-0.06,0.01-0.12,0.01-0.18,0.01c-1.57,0.28-3.18,0.59-4.84,0.92c-1.61,0.32-3.22,0.66-4.82,1.01c-0.4,0.22-0.78,0.47-1.14,0.73 c-0.36,0.27-0.71,0.56-1.02,0.87v0c-0.67,0.67-1.2,1.44-1.56,2.3c-0.34,0.81-0.53,1.71-0.53,2.69V67.36L4.22,67.36z M14.2,0h92.99 c1.21,0,2.37,0.24,3.43,0.68c1.1,0.46,2.09,1.13,2.92,1.95c0.83,0.83,1.5,1.82,1.95,2.92c0.44,1.06,0.68,2.22,0.68,3.43v42.69 c0.51,0.3,1.01,0.63,1.47,0.99c0.52,0.4,1.01,0.82,1.46,1.27c1.16,1.16,2.1,2.51,2.73,4.03c0.6,1.43,0.93,3.02,0.93,4.74v6.09 c0.03,0.1,0.06,0.2,0.08,0.3l0,0.02c0.02,0.13,0.03,0.25,0.03,0.37c0,0.13-0.01,0.26-0.04,0.39l0,0c-0.02,0.1-0.05,0.2-0.08,0.3 v27.66c0,0.58-0.24,1.11-0.62,1.49c-0.38,0.38-0.91,0.62-1.49,0.62h-4.35c-0.49,0-0.94-0.17-1.3-0.45 c-0.36-0.28-0.63-0.68-0.74-1.14c-0.8-2.3-1.61-4.12-2.48-5.54c-0.86-1.4-1.78-2.4-2.84-3.11c-1.07-0.71-2.35-1.16-3.9-1.43 c-1.58-0.28-3.42-0.37-5.61-0.36l-79.76,0.1l-0.04,0c-1.57-0.03-2.86,0.17-3.94,0.59c-1.07,0.42-1.94,1.05-2.66,1.86 c-0.81,0.9-1.49,2.05-2.11,3.39c-0.63,1.37-1.2,2.93-1.77,4.64l0,0c-0.14,0.44-0.42,0.79-0.77,1.04c-0.33,0.24-0.73,0.38-1.14,0.4 c-0.03,0.01-0.06,0.01-0.09,0.01H2.11c-0.58,0-1.11-0.24-1.49-0.62C0.24,98.94,0,98.41,0,97.83V61.52c0-1.57,0.3-3.01,0.84-4.31 c0.58-1.38,1.43-2.61,2.49-3.67c0.3-0.3,0.63-0.6,0.98-0.88c0.3-0.24,0.6-0.47,0.92-0.68V8.89c0-1.21,0.24-2.36,0.68-3.4 c0.46-1.09,1.13-2.07,1.96-2.89c0.83-0.82,1.82-1.47,2.91-1.92C11.84,0.24,12.99,0,14.2,0L14.2,0z M107.19,4.22H14.2 c-0.65,0-1.27,0.13-1.84,0.36c-0.59,0.24-1.11,0.59-1.55,1.02c-0.43,0.42-0.78,0.94-1.02,1.5C9.57,7.65,9.45,8.25,9.45,8.89v41.06 c0.3-0.1,0.6-0.18,0.91-0.26c0.49-0.13,0.98-0.24,1.47-0.32c0.68-0.12,1.42-0.25,2.22-0.39c0.6-0.1,1.24-0.21,1.9-0.31V38.19 c0-1.58,0.32-3.09,0.89-4.47c0.6-1.44,1.47-2.73,2.55-3.81c1.08-1.08,2.37-1.95,3.81-2.55c1.38-0.57,2.89-0.89,4.47-0.89h19.82 c1.58,0,3.09,0.32,4.47,0.89c1.44,0.6,2.73,1.47,3.81,2.55c1.08,1.08,1.95,2.37,2.55,3.81c0.57,1.38,0.89,2.89,0.89,4.47v6.69 c0.7-0.01,1.4-0.01,2.11-0.01v-6.68c0-1.58,0.32-3.09,0.89-4.47c0.6-1.44,1.47-2.73,2.55-3.81c1.08-1.08,2.37-1.95,3.81-2.55 c1.38-0.57,2.89-0.89,4.47-0.89h19.82c1.58,0,3.09,0.32,4.47,0.89c1.44,0.6,2.73,1.47,3.81,2.55c1.08,1.08,1.95,2.37,2.55,3.81 c0.57,1.38,0.89,2.89,0.89,4.47v10.34c0.75,0.11,1.55,0.24,2.41,0.38c0.95,0.15,1.86,0.3,2.74,0.45c0.45,0.08,0.91,0.17,1.37,0.28 c0.29,0.07,0.57,0.14,0.84,0.22V8.98c0-0.64-0.13-1.25-0.36-1.81c-0.24-0.58-0.6-1.1-1.04-1.55c-0.44-0.44-0.97-0.8-1.54-1.04 C108.44,4.35,107.83,4.22,107.19,4.22L107.19,4.22z M43.21,45.56c2.01-0.15,4.03-0.28,6.08-0.38c1.89-0.1,3.8-0.17,5.71-0.22v-6.77 c0-1.01-0.2-1.98-0.57-2.86c-0.38-0.92-0.94-1.74-1.64-2.44c-0.69-0.69-1.52-1.25-2.44-1.64c-0.88-0.37-1.85-0.57-2.86-0.57H27.67 c-1.01,0-1.98,0.2-2.86,0.57c-0.92,0.38-1.74,0.94-2.44,1.64c-0.69,0.69-1.25,1.52-1.64,2.44c-0.37,0.88-0.57,1.85-0.57,2.86V48 c1.62-0.24,3.26-0.46,4.94-0.68c1.81-0.23,3.61-0.44,5.39-0.64c0.69-0.08,1.43-0.17,2.2-0.25c0.72-0.08,1.47-0.15,2.27-0.23 c1.36-0.13,2.71-0.25,4.04-0.36C40.37,45.75,41.77,45.65,43.21,45.56L43.21,45.56z M65.54,44.9c1.21,0.02,2.42,0.05,3.63,0.09 c1.34,0.04,2.68,0.1,4.01,0.16l0.01,0c2.19,0.08,4.33,0.18,6.41,0.3c2.08,0.12,4.11,0.27,6.05,0.44c2.82,0.25,5.55,0.55,8.14,0.9 c2.32,0.32,4.52,0.68,6.58,1.08v-9.68c0-1.01-0.2-1.98-0.57-2.86c-0.38-0.92-0.94-1.74-1.64-2.44c-0.69-0.69-1.52-1.25-2.44-1.64 c-0.88-0.37-1.85-0.57-2.86-0.57H73.05c-1.01,0-1.98,0.2-2.86,0.57c-0.92,0.38-1.74,0.94-2.44,1.64c-0.69,0.69-1.25,1.52-1.64,2.44 c-0.37,0.88-0.57,1.85-0.57,2.86V44.9L65.54,44.9z M118.54,71.59H4.22v24.13h1.43c0.56-1.58,1.14-3.05,1.79-4.36 c0.7-1.4,1.49-2.64,2.45-3.71c1.14-1.28,2.48-2.27,4.09-2.93c1.61-0.65,3.49-0.98,5.75-0.93l79.69-0.1c2.57,0,4.77,0.12,6.69,0.49 c1.95,0.37,3.63,1,5.14,2c1.4,0.93,2.6,2.16,3.68,3.77c1.03,1.54,1.95,3.43,2.83,5.76h0.76V71.59L118.54,71.59z" />

        </symbol>
        <symbol id="bed3" viewBox="0 0 512 512">

            <path
                d="m496 320c0-13.1 0-239.28 0-248 0-8.836-7.164-16-16-16s-16 7.164-16 16v16h-416v-16c0-8.836-7.164-16-16-16s-16 7.164-16 16v248c-8.836 0-16 7.164-16 16v104c0 8.836 7.164 16 16 16h40c5.036 0 9.778-2.371 12.8-6.4l19.2-25.6h336l19.2 25.6c3.021 4.029 7.764 6.4 12.8 6.4h40c8.836 0 16-7.164 16-16v-104c0-8.836-7.164-16-16-16zm-32-71.39c-17.206-9.979-30.797-8.61-48-8.61v-32c0-26.467-21.533-48-48-48h-80c-12.284 0-23.501 4.644-32 12.261-8.499-7.617-19.716-12.261-32-12.261h-80c-26.467 0-48 21.533-48 48v32c-17.989 0-30.887-1.315-48 8.61v-128.61h416zm-336-8.61v-32c0-8.822 7.178-16 16-16h80c8.822 0 16 7.178 16 16v32zm144-32c0-8.822 7.178-16 16-16h80c8.822 0 16 7.178 16 16v32h-112zm-224 96c0-17.645 14.355-32 32-32h352c17.645 0 32 14.355 32 32v16h-416zm432 120h-16l-19.2-25.6c-3.021-4.029-7.764-6.4-12.8-6.4h-352c-5.036 0-9.778 2.371-12.8 6.4l-19.2 25.6h-16v-72h448z" />

        </symbol>
        <symbol id="tv" viewBox="0 0 30 28">
            <path
                d="M28 19.5v-15c0-0.266-0.234-0.5-0.5-0.5h-25c-0.266 0-0.5 0.234-0.5 0.5v15c0 0.266 0.234 0.5 0.5 0.5h25c0.266 0 0.5-0.234 0.5-0.5zM30 4.5v15c0 1.375-1.125 2.5-2.5 2.5h-11.5v2h5.5c0.281 0 0.5 0.219 0.5 0.5v1c0 0.281-0.219 0.5-0.5 0.5h-13c-0.281 0-0.5-0.219-0.5-0.5v-1c0-0.281 0.219-0.5 0.5-0.5h5.5v-2h-11.5c-1.375 0-2.5-1.125-2.5-2.5v-15c0-1.375 1.125-2.5 2.5-2.5h25c1.375 0 2.5 1.125 2.5 2.5z">
            </path>
        </symbol>
        <symbol id="ac" viewBox="0 0 24 24">
            <path
                d="M21.984 11.016v1.969h-4.172l3.234 3.234-1.406 1.453-4.641-4.688h-2.016v2.016l4.688 4.641-1.453 1.406-3.234-3.234v4.172h-1.969v-4.172l-3.234 3.234-1.453-1.406 4.688-4.641v-2.016h-2.016l-4.641 4.688-1.406-1.453 3.234-3.234h-4.172v-1.969h4.172l-3.234-3.234 1.406-1.453 4.641 4.688h2.016v-2.016l-4.688-4.641 1.453-1.406 3.234 3.234v-4.172h1.969v4.172l3.234-3.234 1.453 1.406-4.688 4.641v2.016h2.016l4.641-4.688 1.406 1.453-3.234 3.234h4.172z">
            </path>
        </symbol>
        <symbol id="bath" viewBox="0 0 28 28">
            <path
                d="M26 17v3c0 1.781-0.781 3.359-2 4.469v3.031c0 0.281-0.219 0.5-0.5 0.5h-1c-0.281 0-0.5-0.219-0.5-0.5v-1.844c-0.625 0.219-1.297 0.344-2 0.344h-12c-0.703 0-1.375-0.125-2-0.344v1.719c0 0.344-0.219 0.625-0.5 0.625h-1c-0.281 0-0.5-0.281-0.5-0.625v-2.906c-1.219-1.109-2-2.688-2-4.469v-3h24zM11 10.5c0 0.281-0.219 0.5-0.5 0.5s-0.5-0.219-0.5-0.5 0.219-0.5 0.5-0.5 0.5 0.219 0.5 0.5zM12 9.5c0 0.281-0.219 0.5-0.5 0.5s-0.5-0.219-0.5-0.5 0.219-0.5 0.5-0.5 0.5 0.219 0.5 0.5zM11 8.5c0 0.281-0.219 0.5-0.5 0.5s-0.5-0.219-0.5-0.5 0.219-0.5 0.5-0.5 0.5 0.219 0.5 0.5zM13 8.5c0 0.281-0.219 0.5-0.5 0.5s-0.5-0.219-0.5-0.5 0.219-0.5 0.5-0.5 0.5 0.219 0.5 0.5zM12 7.5c0 0.281-0.219 0.5-0.5 0.5s-0.5-0.219-0.5-0.5 0.219-0.5 0.5-0.5 0.5 0.219 0.5 0.5zM11 6.5c0 0.281-0.219 0.5-0.5 0.5s-0.5-0.219-0.5-0.5 0.219-0.5 0.5-0.5 0.5 0.219 0.5 0.5zM28 14.5v1c0 0.281-0.219 0.5-0.5 0.5h-27c-0.281 0-0.5-0.219-0.5-0.5v-1c0-0.281 0.219-0.5 0.5-0.5h1.5v-10c0-2.203 1.797-4 4-4 1.125 0 2.141 0.469 2.875 1.219 0.969-0.391 2.125-0.25 2.984 0.422l0.344-0.344c0.094-0.094 0.25-0.094 0.344 0l0.656 0.656c0.094 0.094 0.094 0.25 0 0.344l-4.906 4.906c-0.094 0.094-0.25 0.094-0.344 0l-0.656-0.656c-0.094-0.094-0.094-0.25 0-0.344l0.344-0.344c-0.75-0.953-0.844-2.266-0.266-3.313-0.359-0.344-0.844-0.547-1.375-0.547-1.109 0-2 0.891-2 2v10h23.5c0.281 0 0.5 0.219 0.5 0.5zM14 7.5c0 0.281-0.219 0.5-0.5 0.5s-0.5-0.219-0.5-0.5 0.219-0.5 0.5-0.5 0.5 0.219 0.5 0.5zM13 6.5c0 0.281-0.219 0.5-0.5 0.5s-0.5-0.219-0.5-0.5 0.219-0.5 0.5-0.5 0.5 0.219 0.5 0.5zM12 5.5c0 0.281-0.219 0.5-0.5 0.5s-0.5-0.219-0.5-0.5 0.219-0.5 0.5-0.5 0.5 0.219 0.5 0.5zM15 6.5c0 0.281-0.219 0.5-0.5 0.5s-0.5-0.219-0.5-0.5 0.219-0.5 0.5-0.5 0.5 0.219 0.5 0.5zM14 5.5c0 0.281-0.219 0.5-0.5 0.5s-0.5-0.219-0.5-0.5 0.219-0.5 0.5-0.5 0.5 0.219 0.5 0.5zM13 4.5c0 0.281-0.219 0.5-0.5 0.5s-0.5-0.219-0.5-0.5 0.219-0.5 0.5-0.5 0.5 0.219 0.5 0.5zM16 5.5c0 0.281-0.219 0.5-0.5 0.5s-0.5-0.219-0.5-0.5 0.219-0.5 0.5-0.5 0.5 0.219 0.5 0.5zM15 4.5c0 0.281-0.219 0.5-0.5 0.5s-0.5-0.219-0.5-0.5 0.219-0.5 0.5-0.5 0.5 0.219 0.5 0.5zM17 4.5c0 0.281-0.219 0.5-0.5 0.5s-0.5-0.219-0.5-0.5 0.219-0.5 0.5-0.5 0.5 0.219 0.5 0.5z">
            </path>
        </symbol>
        <symbol id="fridge" viewBox="0 0 241.35 241.349">
            <path d="M205.38,11.465C205.38,5.143,200.237,0,193.913,0H47.435C41.113,0,35.97,5.143,35.97,11.465v197.322
			c0,6.324,5.144,11.467,11.465,11.467h146.479c6.324,0,11.467-5.143,11.467-11.467V11.465z M191.043,205.921H50.307V14.337h140.736
			V205.921z" />
            <path d="M196.741,227.011H43.808c-3.962,0-7.168,3.211-7.168,7.169s3.206,7.169,7.168,7.169h152.933
			c3.958,0,7.169-3.211,7.169-7.169S200.699,227.011,196.741,227.011z" />
            <path d="M72.483,169.369c3.962,0,7.168-3.211,7.168-7.169V67.208c0-3.958-3.206-7.169-7.168-7.169s-7.168,3.211-7.168,7.169
			v94.981C65.314,166.158,68.521,169.369,72.483,169.369z" />
        </symbol>
        <symbol id="toilet" viewBox="0 0 24 24">
            <path
                d="M21,9H9V3A2,2,0,0,0,7,1H3A2,2,0,0,0,1,3V9a5.006,5.006,0,0,0,5,5H7.073A7.061,7.061,0,0,0,11,19.319l-.925,2.31A1,1,0,0,0,11,23h8a1,1,0,0,0,.929-1.371L19,19.319A7.045,7.045,0,0,0,23,13V11A2,2,0,0,0,21,9Zm0,2v1H9V11ZM3,9V3H7v9H6A3,3,0,0,1,3,9Zm14.417,8.793a1,1,0,0,0-.645,1.33L17.523,21H12.477l.751-1.877a1,1,0,0,0-.645-1.33A5.034,5.034,0,0,1,9.1,14H20.9A5.034,5.034,0,0,1,17.417,17.793Z" />
        </symbol>
        <symbol id="sofa" viewBox="0 0 64 64">
            <path d="M56.58,29.4V19.94a6.41,6.41,0,0,0-6.41-6.4H15.42A6.41,6.41,0,0,0,9,19.94V29.4" />
            <path
                d="M58.69,29.4h-2A1.55,1.55,0,0,0,55.14,31s0,4,0,4.92c0,.38-1,.2-2.4.15H12.85c-.77,0-2.38.28-2.38,0,0-1.49,0-5,0-5A1.56,1.56,0,0,0,8.9,29.4h-2A1.56,1.56,0,0,0,5.34,31V46A1.16,1.16,0,0,0,6.5,47.16H59.08A1.16,1.16,0,0,0,60.25,46V31A1.56,1.56,0,0,0,58.69,29.4Z" />
        </symbol>

    </defs>
</svg>